<?xml version="1.0" encoding="UTF-8"?>
<svg version="1.1" xmlns="http://www.w3.org/2000/svg" width="1024" height="1024">
<path d="M0 0 C337.92 0 675.84 0 1024 0 C1024 337.92 1024 675.84 1024 1024 C686.08 1024 348.16 1024 0 1024 C0 686.08 0 348.16 0 0 Z " fill="#010101" transform="translate(0,0)"/>
<path d="M0 0 C1.89820396 -0.00461249 3.79640435 -0.01096773 5.6945973 -0.01890898 C10.89558875 -0.03557772 16.0962859 -0.02736699 21.29727829 -0.0149641 C26.91224573 -0.00590587 32.52716293 -0.01988724 38.14212036 -0.03088379 C49.13613336 -0.04866563 60.13003709 -0.04483037 71.12405436 -0.03323323 C80.06013474 -0.02419743 88.99618451 -0.02297555 97.93226814 -0.02732849 C99.20440346 -0.02794142 100.47653878 -0.02855436 101.78722366 -0.02918586 C104.37160528 -0.03046477 106.9559869 -0.03176163 109.5403685 -0.03307623 C133.08101919 -0.04415608 156.62159671 -0.03266797 180.16223509 -0.01170584 C201.63964717 0.00727367 223.11696437 0.00557935 244.59437561 -0.0135498 C268.73782443 -0.03498175 292.88120579 -0.04338027 317.02466685 -0.03110075 C319.59981413 -0.02982657 322.17496142 -0.02856908 324.75010872 -0.02732849 C326.65059824 -0.02640284 326.65059824 -0.02640284 328.58948148 -0.02545848 C337.51319856 -0.0220064 346.43688194 -0.02783096 355.3605938 -0.0372467 C366.23804445 -0.04847169 377.11537965 -0.0454161 387.9928171 -0.02412373 C393.54151905 -0.01361983 399.09002861 -0.00948038 404.6387291 -0.02272034 C409.72091838 -0.0346636 414.80273742 -0.02804952 419.88489325 -0.00681013 C421.720575 -0.00235228 423.55628822 -0.00459191 425.39194965 -0.01431328 C439.35773481 -0.08258411 450.95964473 1.1816871 461.40809631 11.50793457 C470.5291891 22.42530384 470.84632026 33.70323193 470.79577637 47.24481201 C470.79995186 49.06235481 470.80543056 50.879895 470.81209618 52.69743037 C470.82654147 57.68014443 470.82230887 62.66269294 470.81492937 67.64541602 C470.81019768 73.02389561 470.82270765 78.40233939 470.83294678 83.7808075 C470.85014082 94.31372523 470.85097342 104.84658332 470.84573387 115.37951145 C470.84169161 123.94231178 470.84313642 132.50509449 470.84848213 141.06789398 C470.84923055 142.28685548 470.84997898 143.50581698 470.85075008 144.76171671 C470.85228157 147.2381054 470.85381992 149.71449409 470.85536505 152.19088277 C470.86909261 175.41363276 470.86365088 198.63634906 470.85217983 221.85909829 C470.84225007 243.09554997 470.85518327 264.33191449 470.87911402 285.56835273 C470.90350896 307.38133887 470.91311174 329.19428442 470.9064613 351.00728393 C470.90296959 363.25059146 470.90519783 375.49383199 470.92271233 387.73712921 C470.93743932 398.16109607 470.9380633 408.58494874 470.92064141 419.00891337 C470.9121327 424.32495744 470.90997884 429.64079758 470.92529297 434.95683098 C470.93915387 439.82883226 470.93435869 444.70045516 470.91505373 449.57243463 C470.9112977 451.32945014 470.91420417 453.08649605 470.92466538 454.84348443 C471.00697185 469.73271504 469.34933126 482.32095743 458.56044006 493.40637207 C450.39870864 501.09754641 441.80212994 503.66523667 430.74891472 503.64215565 C429.98160778 503.64450788 429.21430084 503.64686011 428.42374218 503.64928362 C425.84355134 503.65595921 423.26341102 503.65551583 420.68321228 503.65510559 C418.81820128 503.6584051 416.95319099 503.66213086 415.08818161 503.66624707 C409.9558011 503.6762651 404.82343228 503.67998354 399.69104338 503.68263638 C394.15848513 503.68653996 388.62593613 503.69611821 383.09338379 503.70484924 C369.72933832 503.72461118 356.36529209 503.73467911 343.00123566 503.74357703 C336.70868486 503.74796001 330.41613489 503.75332676 324.12358475 503.7585659 C303.20765046 503.77557723 282.29171634 503.79009676 261.37577629 503.79731464 C260.02336709 503.7977894 258.67095789 503.79826529 257.31854869 503.79874231 C256.64788344 503.79897868 255.97721818 503.79921506 255.28622974 503.7994586 C251.88837537 503.80065978 248.49052099 503.80187524 245.09266663 503.80310059 C244.41835567 503.80334074 243.74404471 503.80358089 243.04930008 503.80382831 C221.18825725 503.81172062 199.32726867 503.83515171 177.46624953 503.86765653 C154.34804978 503.90196782 131.22987542 503.92166583 108.11164677 503.92495888 C95.51174791 503.92712467 82.91192882 503.93588362 70.31205368 503.96142006 C59.58271924 503.98311519 48.85348395 503.99118324 38.12413006 503.98145328 C32.65038479 503.9769053 27.17684417 503.97882399 21.70312691 503.99821472 C16.68922145 504.01582312 11.67567028 504.01486736 6.66176118 503.99931743 C4.85082085 503.99693786 3.03985614 504.00128298 1.22895311 504.01314608 C-13.39575206 504.10299423 -25.51926993 502.00566876 -36.56455994 491.66027832 C-45.55392813 482.06016749 -46.80476477 471.05852379 -48.59190369 458.50793457 C-49.46846619 458.99262207 -50.34502869 459.47730957 -51.24815369 459.97668457 C-74.52205604 472.4390182 -102.34278761 480.46485726 -128.84190369 480.74621582 C-129.60918289 480.75600967 -130.3764621 480.76580353 -131.16699219 480.77589417 C-161.88732408 481.08701015 -190.26066275 476.97852353 -218.59190369 464.50793457 C-219.24545837 464.22756348 -219.89901306 463.94719238 -220.57237244 463.6583252 C-236.93892884 456.59732515 -252.24820719 447.36899813 -265.59190369 435.50793457 C-266.38080994 434.82730957 -267.16971619 434.14668457 -267.98252869 433.44543457 C-270.5657135 431.17889822 -273.08565588 428.85934236 -275.59190369 426.50793457 C-276.37887634 425.77196045 -276.37887634 425.77196045 -277.18174744 425.02111816 C-290.47345863 412.48531549 -301.59251135 398.42421524 -310.59190369 382.50793457 C-310.94704041 381.89047363 -311.30217712 381.2730127 -311.66807556 380.63684082 C-337.99703306 334.54975751 -343.15878397 279.40323083 -329.43614197 228.51477051 C-320.25939189 195.83089141 -302.85345627 167.95045828 -279.59190369 143.50793457 C-278.93963806 142.80281738 -278.28737244 142.0977002 -277.61534119 141.37121582 C-244.58367354 106.72310486 -194.0509961 87.81343436 -146.84580994 86.34777832 C-114.28327696 85.64451619 -83.23063163 92.36422862 -53.80918884 106.13317871 C-53.11416763 106.45800484 -52.41914642 106.78283096 -51.70306396 107.11750031 C-49.99915641 107.91391078 -48.29550433 108.7108678 -46.59190369 109.50793457 C-46.60078613 108.5301152 -46.60966858 107.55229584 -46.61882019 106.54484558 C-46.70020355 97.29188325 -46.76001111 88.03899435 -46.79915237 78.7857542 C-46.81995242 74.02950208 -46.84813008 69.27354083 -46.8936615 64.51745605 C-46.93739159 59.92032356 -46.9610977 55.32346937 -46.97141266 50.72614479 C-46.97875559 48.97959836 -46.99309364 47.2330657 -47.01482391 45.48663902 C-47.17344801 32.19969199 -46.21819057 20.6467321 -36.59190369 10.50793457 C-25.74986782 0.43699178 -14.08188362 -0.07447679 0 0 Z " fill="#FDFDFD" transform="translate(428.59190368652344,234.4920654296875)"/>
<path d="M0 0 C153.45 0 306.9 0 465 0 C465.0928125 83.716875 465.0928125 83.716875 465.1875 169.125 C465.21481201 186.76855957 465.24212402 204.41211914 465.27026367 222.59033203 C465.28381348 244.08178711 465.28381348 244.08178711 465.28633118 254.13253784 C465.28913399 261.17480457 465.30016043 268.21700027 465.31672668 275.25924683 C465.33579435 283.37680189 465.34451448 291.49428859 465.34033485 299.61186623 C465.33852401 303.7662418 465.34143738 307.9204645 465.35764539 312.07481217 C465.37220755 315.83005023 465.37299433 319.58502683 465.36270332 323.34027672 C465.36082415 325.3440996 465.37378609 327.34791934 465.38724232 329.35169792 C465.3782834 331.14148252 465.3782834 331.14148252 465.36914349 332.96742439 C465.37085223 334.50870921 465.37085223 334.50870921 465.37259549 336.0811311 C464.68050306 341.50290116 462.13591944 345.51031797 458 349 C454.47576577 350.17474474 451.30441273 350.14187695 447.6382103 350.13422108 C446.49904408 350.13774942 446.49904408 350.13774942 445.33686441 350.14134905 C442.77141676 350.14804895 440.20601964 350.14758053 437.64056396 350.14717102 C435.7909275 350.15046902 433.94129175 350.15419445 432.09165692 350.1583125 C426.99264154 350.16834774 421.89363794 350.17205174 416.79461408 350.17470181 C411.30163397 350.1786003 405.80866323 350.18817889 400.31568909 350.19691467 C387.04278446 350.2166911 373.76987906 350.22674641 360.49696338 350.23564246 C354.25071403 350.2400231 348.00446553 350.24539046 341.75821686 350.25063133 C321.00191302 350.26764416 300.2456095 350.28216435 279.48929977 350.28938007 C278.14678346 350.28985483 276.80426714 350.29033072 275.46175082 350.29080774 C274.79597803 350.29104411 274.13020524 350.29128049 273.44425752 350.29152403 C270.07107402 350.29272524 266.69789052 350.29394068 263.32470703 350.29516602 C262.65528663 350.29540617 261.98586624 350.29564632 261.29616037 350.29589374 C239.58779939 350.30378817 217.87949302 350.32722296 196.17115588 350.35972196 C173.22490766 350.39401155 150.278682 350.41372923 127.33240533 350.41702431 C114.82203017 350.41919207 102.31173529 350.42797956 89.80138397 350.45348549 C79.14947384 350.47515198 68.49766346 350.48326287 57.84573379 350.47351871 C52.40895236 350.46896236 46.97237696 350.47093766 41.53562355 350.49028015 C36.56008851 350.50782925 31.58491105 350.50698143 26.60937265 350.49138286 C24.80786489 350.48899421 23.00633291 350.49339504 21.20486233 350.50521151 C18.7578567 350.52027012 16.31212798 350.51070065 13.86515427 350.49498463 C13.1640498 350.50520683 12.46294534 350.51542904 11.74059528 350.52596101 C6.36049323 350.45043155 3.35765596 348.9249377 -1 346 C-5.08789224 341.50331854 -4.72531027 335.77518417 -5 330 C-5.14566278 328.6066161 -5.29289064 327.21339522 -5.44140625 325.8203125 C-6.35909558 314.81656023 -6.35909558 314.81656023 -3.00390625 310.33203125 C-0.10937761 308.02565066 2.91205415 306.03900119 6 304 C8.28844093 302.10457834 10.45994341 300.09686265 12.625 298.0625 C13.17607422 297.54961426 13.72714844 297.03672852 14.29492188 296.50830078 C27.86992903 283.75442785 38.59367748 268.99153741 48 253 C48.35835938 252.39462402 48.71671875 251.78924805 49.0859375 251.16552734 C58.67998568 234.74113002 65.0065033 216.55260424 69 198 C69.19609863 197.10458496 69.39219727 196.20916992 69.59423828 195.28662109 C80.13398621 145.20773701 70.33802606 91.60730645 42.76831055 48.51220703 C35.23525648 37.12741039 26.41118422 26.85866995 17 17 C16.20464844 16.16339844 15.40929687 15.32679688 14.58984375 14.46484375 C10.47185329 10.23383811 6.31090495 6.52851392 1.43359375 3.19140625 C0.72396484 2.60166016 0.72396484 2.60166016 0 2 C0 1.34 0 0.68 0 0 Z " fill="#030303" transform="translate(410,363)"/>
<path d="M0 0 C0.53995605 0.43989258 1.07991211 0.87978516 1.63623047 1.33300781 C35.63734026 29.14589613 59.26418815 69.32931551 64.52734375 113.3203125 C67.13396623 140.59339856 64.45707592 167.24176117 55 193 C54.74379883 193.71172363 54.48759766 194.42344727 54.22363281 195.15673828 C46.32372248 216.760069 33.76521248 235.35750892 18 252 C17.11957031 252.94488281 16.23914063 253.88976562 15.33203125 254.86328125 C-11.33236866 282.89684749 -51.64754045 302.55510967 -90.55419922 304.14526367 C-91.79186035 304.15275635 -93.02952148 304.16024902 -94.3046875 304.16796875 C-94.98140503 304.17224884 -95.65812256 304.17652893 -96.35534668 304.18093872 C-98.52863291 304.19086937 -100.70169553 304.19100311 -102.875 304.1875 C-103.61776184 304.18656342 -104.36052368 304.18562683 -105.12579346 304.18466187 C-142.71356715 304.08160238 -179.43096082 292.9716079 -209 269 C-209.6074707 268.50918945 -210.21494141 268.01837891 -210.84082031 267.51269531 C-246.76881406 238.13703053 -270.08303102 196.83198688 -274.8190918 150.4296875 C-278.32536866 103.33863851 -263.58502376 57.47065696 -232.875 21.5625 C-230.94155361 19.35170744 -228.98108764 17.16814312 -227 15 C-226.25234375 14.18015625 -225.5046875 13.3603125 -224.734375 12.515625 C-204.24013621 -8.88946884 -176.39100006 -23.40482909 -148 -31 C-146.82566406 -31.31582031 -145.65132812 -31.63164062 -144.44140625 -31.95703125 C-95.11878346 -43.75030855 -39.37254207 -32.24798684 0 0 Z " fill="#020202" transform="translate(393,384)"/>
<path d="M0 0 C1.50085628 -0.00543041 3.00170722 -0.0125582 4.50254822 -0.02124023 C8.55228697 -0.03936916 12.60161497 -0.03244922 16.65136027 -0.01972389 C20.90630176 -0.00953989 25.16120996 -0.01900465 29.41615295 -0.02526855 C36.56037658 -0.03253012 43.7044344 -0.02299739 50.84863281 -0.00390625 C59.08529777 0.01785133 67.32156643 0.01081331 75.55822176 -0.01121187 C82.65326302 -0.02941851 89.74818561 -0.03189833 96.8432427 -0.0214572 C101.0705737 -0.01525001 105.29771901 -0.0143094 109.52503777 -0.02760315 C113.50205022 -0.03923777 117.47855659 -0.03099874 121.45551491 -0.00802612 C122.90703368 -0.00277897 124.35859573 -0.00418355 125.81009674 -0.01307678 C136.70527306 -0.07362816 146.94598348 0.93655494 155.27758789 8.64257812 C156.04844727 9.32578125 156.81930664 10.00898438 157.61352539 10.71289062 C163.16404442 17.51369722 165.97105239 25.9827292 168.67211914 34.23242188 C169.16091805 35.69875816 169.16091805 35.69875816 169.65959167 37.19471741 C170.33948132 39.23970398 171.01574079 41.28590083 171.68847656 43.33325195 C172.7213129 46.47400779 173.76712611 49.61022555 174.81469727 52.74609375 C175.47626716 54.74128375 176.13710128 56.73671791 176.79711914 58.73242188 C177.10954056 59.66988754 177.42196198 60.60735321 177.74385071 61.57322693 C178.17010994 62.87587242 178.17010994 62.87587242 178.60498047 64.20483398 C178.85637283 64.96743027 179.1077652 65.73002655 179.36677551 66.51573181 C179.90258789 68.51757812 179.90258789 68.51757812 179.90258789 71.51757812 C180.93383789 71.02257812 181.96508789 70.52757812 183.02758789 70.01757812 C189.90756067 67.43758833 198.3996444 67.03476257 205.18774414 69.90820312 C208.97283809 72.1520286 211.23061687 74.25021784 212.50805664 78.56054688 C213.54189079 84.50765223 212.33708442 88.60289454 208.90258789 93.51757812 C205.55830453 97.22017756 201.65609934 97.12145217 196.90258789 97.51757812 C197.34989258 98.19820313 197.79719727 98.87882812 198.25805664 99.58007812 C201.96365898 105.52168359 204.72049576 111.15370169 206.77758789 117.83007812 C207.08152466 118.81524414 207.08152466 118.81524414 207.39160156 119.8203125 C209.80249417 128.06958165 210.08311595 135.90726459 210.14086914 144.44335938 C210.14894089 145.58612839 210.15701263 146.7288974 210.16532898 147.90629578 C210.1791188 150.31764226 210.1898636 152.72900785 210.19775391 155.14038086 C210.20928494 157.59486653 210.2297542 160.04932691 210.25927734 162.50366211 C210.30209465 166.06706629 210.31814111 169.62972942 210.32836914 173.19335938 C210.34587723 174.27909744 210.36338531 175.36483551 210.38142395 176.48347473 C210.35724781 185.05917857 208.86833666 192.76456754 202.77758789 199.14257812 C199.90258789 201.51757812 199.90258789 201.51757812 197.90258789 201.51757812 C197.91829834 202.33436035 197.93400879 203.15114258 197.95019531 203.99267578 C198.01272729 207.7092389 198.05163734 211.42569109 198.09008789 215.14257812 C198.12779297 217.07037109 198.12779297 217.07037109 198.16625977 219.03710938 C198.17592773 220.28105469 198.1855957 221.525 198.19555664 222.80664062 C198.21126709 223.9482666 198.22697754 225.08989258 198.24316406 226.26611328 C197.7325275 231.14113674 196.01106373 234.39412289 192.59008789 237.86132812 C187.39001903 240.95569009 180.72849245 240.0892081 174.90258789 240.01757812 C173.64446289 240.03304687 172.38633789 240.04851562 171.09008789 240.06445312 C159.46180149 240.01518072 159.46180149 240.01518072 154.90258789 235.51757812 C151.90258789 230.51757812 151.90258789 230.51757812 151.90258789 202.51757812 C92.83258789 202.51757812 33.76258789 202.51757812 -27.09741211 202.51757812 C-27.09741211 211.75757813 -27.09741211 220.99757813 -27.09741211 230.51757812 C-31.8731288 237.68115317 -31.8731288 237.68115317 -36.09741211 239.51757812 C-40.72518547 240.13211435 -45.37056358 239.98118898 -50.03491211 239.95507812 C-51.29754883 239.97505859 -52.56018555 239.99503906 -53.86108398 240.015625 C-64.18722923 240.01017585 -64.18722923 240.01017585 -67.78881836 237.86523438 C-71.2030488 234.39323354 -72.9274407 231.14028729 -73.43798828 226.26611328 C-73.42227783 225.1244873 -73.40656738 223.98286133 -73.39038086 222.80664062 C-73.37587891 220.94072266 -73.37587891 220.94072266 -73.36108398 219.03710938 C-73.33594727 217.75191406 -73.31081055 216.46671875 -73.28491211 215.14257812 C-73.26460937 213.17998047 -73.26460937 213.17998047 -73.24389648 211.17773438 C-73.20863581 207.95725969 -73.15934844 204.73763206 -73.09741211 201.51757812 C-73.71616211 201.22753906 -74.33491211 200.9375 -74.97241211 200.63867188 C-80.19785715 197.88186539 -82.36278673 192.61202937 -84.25073242 187.28344727 C-85.98186456 179.58370296 -85.60494559 171.65894039 -85.5090332 163.8034668 C-85.47262162 160.72280449 -85.4680143 157.64335493 -85.46850586 154.5625 C-85.39792294 134.46806983 -83.7991783 115.60778648 -72.09741211 98.51757812 C-72.6890918 98.370625 -73.28077148 98.22367187 -73.89038086 98.07226562 C-79.83835677 96.38393315 -82.6552088 94.68088309 -86.09741211 89.51757812 C-87.34092067 85.78705246 -87.61940082 82.3920577 -87.09741211 78.51757812 C-84.66153207 73.64581805 -81.8122482 71.15855353 -77.09741211 68.51757812 C-69.04794412 67.4039807 -61.41198659 67.9349294 -54.09741211 71.51757812 C-53.88600586 70.26976562 -53.67459961 69.02195312 -53.45678711 67.73632812 C-51.88364743 59.89822867 -49.48609457 52.28699491 -47.14916992 44.64990234 C-46.35044926 42.02754967 -45.5714576 39.39983098 -44.79272461 36.77148438 C-38.41413834 15.63028922 -38.41413834 15.63028922 -29.84741211 8.14257812 C-29.18225586 7.53671875 -28.51709961 6.93085938 -27.83178711 6.30664062 C-18.91414034 0.47195174 -10.44625173 -0.06390547 0 0 Z " fill="#FDFDFD" transform="translate(586.097412109375,405.482421875)"/>
<path d="M0 0 C32.84907853 -0.07976062 65.69812748 -0.1451256 98.54728794 -0.17945004 C99.28605157 -0.18022435 100.0248152 -0.18099867 100.7859656 -0.18179645 C101.5243415 -0.18256948 102.26271739 -0.1833425 103.02346832 -0.18413895 C103.76141865 -0.18491176 104.49936898 -0.18568456 105.25968144 -0.18648078 C106.7484864 -0.18803421 108.23729137 -0.1895752 109.72609635 -0.19110373 C120.89642257 -0.20269535 132.06672063 -0.22158505 143.23703003 -0.243927 C156.05506066 -0.2694676 168.87305222 -0.28374815 181.6911093 -0.28369504 C188.31102505 -0.2839261 194.93086318 -0.28927997 201.55075836 -0.30722237 C207.65954983 -0.3235823 213.76818194 -0.32597169 219.87698758 -0.31722891 C222.09998038 -0.31648658 224.32298174 -0.32085425 226.54595268 -0.33074224 C229.56799476 -0.34340762 232.58945831 -0.33761461 235.61149597 -0.32714844 C236.48363605 -0.33520463 237.35577613 -0.34326081 238.2543447 -0.35156113 C244.6289879 -0.29982291 249.38236561 0.7977812 254.46069336 4.91534424 C269.84536615 24.2886359 258.14819336 54.30145609 258.14819336 79.04034424 C103.37819336 79.04034424 -51.39180664 79.04034424 -210.85180664 79.04034424 C-210.85180664 9.04034424 -210.85180664 9.04034424 -207.85180664 4.04034424 C-204.2007127 1.22566541 -201.51201091 0.66208534 -196.95228577 0.64161682 C-195.75961499 0.62907742 -194.56694422 0.61653801 -193.3381319 0.60361862 C-192.02788138 0.60505497 -190.71763086 0.60649132 -189.36767578 0.60797119 C-187.95405583 0.59893724 -186.54044364 0.58861502 -185.12684155 0.57712173 C-181.214499 0.54923282 -177.30230176 0.54023179 -173.38987255 0.53428388 C-169.10790433 0.52460353 -164.82603446 0.49790615 -160.54412842 0.47367859 C-152.01102841 0.42838494 -143.47794777 0.40017153 -134.94475973 0.37790245 C-127.92297706 0.35935657 -120.90123647 0.33500155 -113.87948608 0.30682373 C-85.48457789 0.19371453 -57.08967197 0.12243389 -28.69460136 0.06515086 C-19.12972831 0.04563764 -9.56486434 0.02333594 0 0 Z " fill="#020202" transform="translate(616.851806640625,258.95965576171875)"/>
<path d="M0 0 C1.11971695 -0.0168132 1.11971695 -0.0168132 2.26205444 -0.03396606 C3.06155014 -0.02070282 3.86104584 -0.00743958 4.68476868 0.00622559 C5.5427002 0.00067657 6.40063171 -0.00487244 7.28456116 -0.0105896 C10.11555779 -0.02237706 12.9449486 0.00190569 15.77583313 0.02770996 C17.7619825 0.02942341 19.74813413 0.029353 21.73428345 0.02758789 C25.90305667 0.02924139 30.07129243 0.04792502 34.23994446 0.07946777 C39.52923204 0.11880908 44.81780529 0.12355201 50.10721111 0.11600494 C54.21620991 0.11289996 58.32505449 0.12518481 62.43401527 0.14213562 C64.38043559 0.14907306 66.3268734 0.15230167 68.27330589 0.15144348 C95.14266877 0.16942064 123.26841967 3.7099941 143.22505188 23.60974121 C157.85701965 39.17468811 161.59558027 59.77791092 161.20161438 80.32067871 C160.60248459 96.9854738 155.59972021 111.99661729 145.95161438 125.62145996 C145.22973938 126.65270996 144.50786438 127.68395996 143.76411438 128.74645996 C132.92444016 140.87990174 116.66910261 147.71495431 100.95161438 150.62145996 C99.56136047 150.88164917 99.56136047 150.88164917 98.14302063 151.14709473 C92.18430901 151.98167178 86.14550269 151.74338995 80.14302063 151.71911621 C78.80781101 151.71724829 77.47260069 151.71582616 76.13739014 151.71482849 C72.6439877 151.71103273 69.15062765 151.70122796 65.65724182 151.69012451 C62.08414788 151.67984677 58.51104701 151.67531731 54.9379425 151.67028809 C47.94248252 151.65960271 40.94705049 151.64256212 33.95161438 151.62145996 C33.95827621 152.61482361 33.96493805 153.60818726 33.97180176 154.63165283 C34.03259763 163.98983953 34.07757968 173.3479862 34.1070509 182.70632553 C34.12271167 187.51763892 34.14395749 192.32879297 34.17793274 197.14001465 C34.21051146 201.78248919 34.22846429 206.42481041 34.23624611 211.06739044 C34.24179229 212.83924015 34.25262256 214.61108141 34.26880455 216.38286591 C34.29055923 218.86329837 34.29358216 221.34309599 34.29219055 223.8236084 C34.30297638 224.55728638 34.31376221 225.29096436 34.32487488 226.046875 C34.30613075 229.13134747 34.10736381 231.32543817 32.65992737 234.07647705 C29.8046412 236.6587722 26.36020604 236.19058503 22.70552063 236.15270996 C21.8979985 236.15653687 21.09047638 236.16036377 20.25848389 236.16430664 C18.55128228 236.16702749 16.84403911 236.15965405 15.13691711 236.14294434 C12.52667436 236.12156284 9.91919252 236.14272346 7.30903625 236.16833496 C5.64952498 236.16569117 3.99001542 236.16056512 2.33052063 236.15270996 C1.5512471 236.16080688 0.77197357 236.16890381 -0.03091431 236.17724609 C-3.25072928 236.12169264 -5.53977077 235.96009417 -8.25348473 234.15331173 C-10.91633534 230.39714723 -10.60915783 227.09708322 -10.56977844 222.59425354 C-10.57742954 221.67148084 -10.58508063 220.74870813 -10.59296358 219.79797262 C-10.61364028 216.69862165 -10.60563682 213.60001056 -10.59770203 210.50061035 C-10.60639411 208.28155326 -10.61675968 206.06250219 -10.62867737 203.84346008 C-10.65550295 197.81042838 -10.65660976 191.7776469 -10.65155077 185.74456716 C-10.6494145 180.71202742 -10.65916994 175.67953864 -10.66876161 170.64700979 C-10.69223798 158.0977842 -10.69049285 145.54868034 -10.67764799 132.99945413 C-10.66730876 122.10037993 -10.68982159 111.20166319 -10.72784443 100.3026597 C-10.76658562 89.11197831 -10.78253293 77.92142723 -10.77559793 66.73066896 C-10.77196664 60.44769502 -10.77729995 54.16504849 -10.80502701 47.88212776 C-10.83012059 41.97469272 -10.82635661 36.0679747 -10.80020523 30.16055107 C-10.79546072 27.99053076 -10.80098955 25.82046049 -10.81745148 23.65049744 C-10.83828423 20.69137569 -10.82227547 17.73468289 -10.79682922 14.77565002 C-10.81157779 13.9135884 -10.82632636 13.05152677 -10.84152186 12.16334206 C-10.73953555 6.53982911 -10.73953555 6.53982911 -8.80505794 3.96938169 C-6.10513477 1.56411959 -3.63889398 -0.00404575 0 0 Z " fill="#FDFDFD" transform="translate(225.0483856201172,402.3785400390625)"/>
<path d="M0 0 C1.35764819 -0.00542851 2.71529049 -0.01255525 4.07292175 -0.02124023 C7.74037207 -0.03939028 11.40736952 -0.03244094 15.07482719 -0.01972389 C18.92412353 -0.00955277 22.7733827 -0.01900093 26.62268066 -0.02526855 C33.08527544 -0.03253306 39.54768699 -0.02298886 46.01025391 -0.00390625 C53.46760381 0.01786033 60.92451618 0.0108081 68.38185549 -0.01121187 C74.79996103 -0.02940017 81.21793533 -0.0319075 87.63605833 -0.0214572 C91.46258935 -0.01524103 95.28891514 -0.01433455 99.11543274 -0.02760315 C102.71405188 -0.03921127 106.31211035 -0.03104667 109.91066933 -0.00802612 C111.85089485 -0.00026819 113.79116814 -0.01205252 115.73136902 -0.02453613 C123.86299034 0.05392298 129.64983911 0.89111595 135.74975586 6.69848633 C138.05805859 10.50565268 139.41956518 14.40598043 140.80664062 18.62304688 C141.10461044 19.50229324 141.40258026 20.38153961 141.70957947 21.28742981 C142.6565695 24.09015837 143.58899924 26.89749486 144.52148438 29.70507812 C145.15143471 31.57322345 145.78228546 33.4410654 146.4140625 35.30859375 C148.72459035 42.1667875 151.021296 49.0265011 153.15991211 55.94067383 C153.40934067 56.74583939 153.65876923 57.55100494 153.91575623 58.38056946 C154.45898438 60.51757812 154.45898438 60.51757812 154.45898438 63.51757812 C89.44898438 63.51757812 24.43898438 63.51757812 -42.54101562 63.51757812 C-40.60572097 56.42149772 -38.62668217 49.43861432 -36.32617188 42.46679688 C-36.02915878 41.56435745 -35.73214569 40.66191803 -35.4261322 39.73213196 C-34.803397 37.84520885 -34.17899768 35.95883418 -33.55297852 34.07299805 C-32.60092579 31.19725533 -31.6617677 28.31749073 -30.72265625 25.4375 C-30.11211799 23.59283735 -29.50081648 21.74842709 -28.88867188 19.90429688 C-28.61249527 19.05107346 -28.33631866 18.19785004 -28.05177307 17.31877136 C-25.93991611 11.0300948 -24.0279469 6.1274081 -18.24415588 2.38346863 C-12.38687422 -0.40773066 -6.36900111 -0.04097935 0 0 Z " fill="#040404" transform="translate(592.541015625,428.482421875)"/>
<path d="M0 0 C8.6625 -0.061875 17.325 -0.12375 26.25 -0.1875 C30.31489746 -0.22846802 30.31489746 -0.22846802 34.46191406 -0.27026367 C36.64647986 -0.27903798 38.83105063 -0.28667967 41.015625 -0.29296875 C42.12019043 -0.30831665 43.22475586 -0.32366455 44.36279297 -0.33947754 C56.37359891 -0.34345463 67.09224612 1.70175382 76.125 9.9375 C84.29141152 18.3441001 86.62160324 27.13724124 86.47094727 38.58203125 C86.01502727 49.437039 83.05637763 59.37435939 75 67 C65.25752101 74.32988022 53.70274334 75.4531699 41.89453125 75.29296875 C40.28934631 75.28843689 40.28934631 75.28843689 38.6517334 75.28381348 C34.70522227 75.26827548 30.75885007 75.2263933 26.8125 75.1875 C13.5403125 75.0946875 13.5403125 75.0946875 0 75 C0 50.25 0 25.5 0 0 Z " fill="#030303" transform="translate(258,441)"/>
<path d="M0 0 C0.92060211 -0.00671722 1.84120422 -0.01343445 2.78970337 -0.02035522 C5.83845387 -0.03938167 8.88698481 -0.04326164 11.93579102 -0.04541016 C14.05184521 -0.0518344 16.1678985 -0.05856248 18.28395081 -0.06558228 C22.72171082 -0.07756636 27.15939291 -0.08126189 31.59716797 -0.08007812 C37.28822505 -0.07987477 42.97878369 -0.1071891 48.66972256 -0.14162254 C53.0405762 -0.16384068 57.41130887 -0.16791724 61.78221321 -0.16685867 C63.88061302 -0.16922184 65.9790158 -0.1780854 68.07736015 -0.19352341 C71.01026384 -0.21308217 73.94207942 -0.20738529 76.875 -0.1953125 C77.74422592 -0.20655151 78.61345184 -0.21779053 79.50901794 -0.22937012 C85.39912564 -0.16764433 85.39912564 -0.16764433 88.51014709 2.19589233 C91.09265979 5.82138805 91.19177683 8.15709019 91.25219727 12.60302734 C91.27797852 13.73353516 91.30375977 14.86404297 91.33032227 16.02880859 C90.96229477 19.68717712 90.27419273 21.42089829 88.00219727 24.29052734 C83.68980473 27.64909988 79.63975442 27.73522818 74.37573242 27.72631836 C73.51817856 27.7363942 72.66062469 27.74647003 71.77708435 27.7568512 C68.94834276 27.78529712 66.1201354 27.79120599 63.29125977 27.79443359 C61.31977114 27.80407692 59.34828467 27.81416956 57.37680054 27.82469177 C53.24602279 27.84264462 49.11543315 27.84821366 44.98461914 27.84643555 C39.69942512 27.84613072 34.41544062 27.88708869 29.13053322 27.93875217 C25.05891412 27.97215903 20.98758607 27.97819181 16.91584396 27.97660637 C14.96782638 27.98013964 13.01980073 27.99337109 11.07191849 28.01660347 C8.34290857 28.04610591 5.61650591 28.03733707 2.88745117 28.01928711 C2.0882576 28.03614563 1.28906403 28.05300415 0.46565247 28.07037354 C-4.89238296 27.98062703 -7.71519658 26.55010401 -11.68126869 22.96803188 C-14.30319389 19.62722087 -14.15706178 15.90241022 -14.18530273 11.79052734 C-14.19948242 10.85208984 -14.21366211 9.91365234 -14.22827148 8.94677734 C-13.98698747 6.1658768 -13.5275839 4.60806958 -11.99780273 2.29052734 C-8.03465631 -0.35157027 -4.60139106 -0.00478688 0 0 Z " fill="#020202" transform="translate(609.997802734375,542.70947265625)"/>
<path d="M0 0 C4.94469104 2.80262068 8.60240777 6.77324087 10.484375 12.16015625 C11.42363372 18.3192298 11.56823982 24.15924513 8.359375 29.66015625 C3.54869648 36.04303975 -1.80553144 39.39862345 -9.515625 41.16015625 C-15.66680767 41.92905408 -20.25346547 40.19677839 -25.515625 37.16015625 C-30.07678601 33.39224063 -33.0380011 29.58225276 -33.87109375 23.61328125 C-34.22005221 16.78501299 -33.02394998 12.32382671 -28.515625 7.16015625 C-20.76556341 -0.76644433 -10.90613721 -3.64102407 0 0 Z " fill="#030303" transform="translate(760.515625,529.83984375)"/>
<path d="M0 0 C5.65367451 2.8885137 9.38286738 7.51843306 12.625 12.875 C13.77885395 18.25965175 13.84038026 23.41894417 12.1875 28.6875 C8.57778106 33.76366726 4.47784343 37.55932323 -1.3125 39.9375 C-10.02285995 41.33737928 -15.3950024 40.43672917 -22.8125 35.5 C-27.61474925 31.25109634 -30.29304965 26.85039667 -31.0625 20.40625 C-31.37989175 14.61385062 -30.18643753 10.24007174 -26.8125 5.5 C-19.47288549 -2.23210726 -9.95607288 -3.8661039 0 0 Z " fill="#030303" transform="translate(556.8125,530.5)"/>
<path d="M0 0 C4.84115976 2.33092877 7.70301121 5.14098526 10 10 C10.86755534 15.36749194 10.94211623 20.31399258 7.9375 25 C4.29142041 29.28285969 0.04259828 30.7028948 -5.4375 31.5 C-11.12216536 30.70215223 -15.09960788 28.01916663 -19 23.875 C-21.03740031 18.0174741 -21.02708606 12.17268206 -18.375 6.5625 C-12.7967211 0.54383066 -8.07999357 -1.28964067 0 0 Z " fill="#FBFBFB" transform="translate(568,284)"/>
<path d="M0 0 C4.9710149 2.53240382 8.49430567 5.98861134 11 11 C11.42930656 16.47365866 10.67063697 20.19285346 8 25 C4.36689821 28.85148495 1.03546439 30.84638005 -4.3125 31.25 C-9.86653806 30.87345505 -12.77561196 29.14276218 -16.8125 25.375 C-19.71254412 21.59274181 -20.26999585 17.68810969 -20 13 C-18.32897238 7.10225544 -15.80333308 4.47475159 -11 1 C-7.52629893 -0.73685053 -3.79809188 -0.46115112 0 0 Z " fill="#FBFBFB" transform="translate(515,284)"/>
<path d="M0 0 C3.91607419 1.94122991 6.40962026 4.43354169 8.34765625 8.3515625 C10.02489293 13.4031215 9.81370272 18.34497441 7.5078125 23.15234375 C4.91489681 27.09210964 1.43266127 28.9342057 -2.9921875 30.33984375 C-7.97182112 31.0387397 -11.27724395 30.27859642 -15.4140625 27.5859375 C-18.93477022 24.80597274 -20.72328877 22.19995767 -21.37109375 17.71875 C-21.56248179 13.16865367 -21.33049297 10.05548993 -19.3671875 5.90234375 C-13.69393386 -0.21879834 -8.12131218 -2.69117992 0 0 Z " fill="#FBFBFB" transform="translate(463.9921875,284.66015625)"/>
</svg>
